<svg xmlns="http://www.w3.org/2000/svg" viewBox="0 0 64 64" role="img" aria-label="Verity Tech">
  <defs>
    <linearGradient id="dotGrad" x1="0%" y1="50%" x2="100%" y2="50%">
      <stop offset="0%" stop-color="#D4AF37"/>
      <stop offset="55%" stop-color="#C9A962"/>
      <stop offset="100%" stop-color="#800020"/>
    </linearGradient>
  </defs>
  <circle cx="32" cy="32" r="30" fill="none" stroke="url(#dotGrad)" stroke-width="0.5" opacity="0.3"/>
  <!-- dot ring logo from business card -->
  <g fill="url(#dotGrad)">
    <circle cx="32" cy="8" r="2.2"/><circle cx="38" cy="9.5" r="1.8"/><circle cx="43.5" cy="12.5" r="2"/>
    <circle cx="48" cy="17" r="1.6"/><circle cx="51" cy="22.5" r="2.1"/><circle cx="53" cy="28.5" r="1.7"/>
    <circle cx="53.5" cy="35" r="2"/><circle cx="52" cy="41" r="1.5"/><circle cx="49" cy="46.5" r="1.9"/>
    <circle cx="44.5" cy="51" r="1.6"/><circle cx="39" cy="54" r="2.1"/><circle cx="32.5" cy="55.5" r="1.8"/>
    <circle cx="26" cy="54" r="2"/><circle cx="20" cy="51" r="1.5"/><circle cx="15" cy="46.5" r="1.9"/>
    <circle cx="11.5" cy="41" r="1.7"/><circle cx="10" cy="35" r="2.1"/><circle cx="11" cy="28.5" r="1.6"/>
    <circle cx="13" cy="22.5" r="2"/><circle cx="16" cy="17" r="1.5"/><circle cx="20.5" cy="12.5" r="1.9"/>
    <circle cx="26" cy="9.5" r="1.7"/>
    <circle cx="32" cy="32" r="3.5" opacity="0.9"/>
  </g>
</svg>
